# xmcd CD database file generated by Grip 2.96
# 
# Track frame offsets:
#       150
#       12688
#       23821
#       32767
#       46780
#       57723
#       63605
#       75604
#       95647
#       105496
#       116748
#       130585
#       142642
# 
# Disc length: 2093 seconds
# 
# Revision: 0
# Processed by: cddbd v1.4PL0 Copyright (c) Steve Scherf et al.
# Submitted via: Grip 2.96
# 
DISCID=ab082b0d
DTITLE=Charley Simmons - Full Circle
DYEAR=1900
DGENRE=
TTITLE0=Southbound
TTITLE1=Suffocation Blues
TTITLE2=Deep Gap Salute
TTITLE3=Your Town Now
TTITLE4=You Can Love Yourself
TTITLE5=Doc's Guitar
TTITLE6=San Francisco Bay Blues
TTITLE7=Pacing The Cage
TTITLE8=Windy and Warm
TTITLE9=Black Label Blues
TTITLE10=Deep River Blues
TTITLE11=Lullaby Baby Blues
TTITLE12=Sunrise Over Sinbad
EXTD=
EXTT0=
EXTT1=
EXTT2=
EXTT3=
EXTT4=
EXTT5=
EXTT6=
EXTT7=
EXTT8=
EXTT9=
EXTT10=
EXTT11=
EXTT12=
PLAYORDER=
